<svg width="32" height="32" viewBox="0 0 32 32" fill="none" xmlns="http://www.w3.org/2000/svg">
<path d="M13.8801 14.7279L10.0045 10.8523L5.1123 15.7442L8.98787 19.6198L8.98537 19.6223L13.1702 23.8071L13.8799 24.5118L13.8824 24.5143L18.0672 20.3294L18.7717 19.6198L31.4141 6.97787L26.5221 2.08594L13.8801 14.7279ZM16.6507 18.9128L15.9461 19.6223L13.8801 21.6883L13.8776 21.6859L11.814 19.6223L11.8165 19.6198L7.94093 15.7442L10.0044 13.6807L13.8801 17.5563L26.5221 4.91431L28.5856 6.97787L16.6507 18.9128Z" fill="white"/>
<path d="M28 29H3V4H21.7638L23.7638 2H1V31H30V11.1934L28 13.1934V29Z" fill="white"/>
</svg>
